<?xml version="1.0" standalone="no"?>
<!DOCTYPE svg PUBLIC "-//W3C//DTD SVG 20010904//EN"
 "http://www.w3.org/TR/2001/REC-SVG-20010904/DTD/svg10.dtd">
<svg version="1.0" xmlns="http://www.w3.org/2000/svg"
 width="640.000000pt" height="640.000000pt" viewBox="0 0 640.000000 640.000000"
 preserveAspectRatio="xMidYMid meet">
<metadata>
Created by potrace 1.14, written by Peter Selinger 2001-2017
</metadata>
<g transform="translate(0.000000,640.000000) scale(0.100000,-0.100000)"
fill="#000000" stroke="none">
<path d="M3135 4383 c-168 -8 -375 -42 -576 -93 -209 -54 -667 -215 -908 -321
-389 -171 -977 -488 -1359 -733 l-72 -46 32 -28 c185 -157 657 -451 995 -621
514 -256 897 -392 1427 -505 446 -95 763 -81 1326 59 668 167 1480 557 2073
997 59 44 107 84 107 88 0 15 -419 269 -668 406 -194 106 -625 322 -767 384
-661 287 -1229 433 -1610 413z m-209 -407 c-14 -35 -26 -71 -26 -79 0 -20 63
-27 250 -31 212 -3 345 -46 483 -154 131 -103 246 -307 247 -436 0 -23 16 -44
74 -101 52 -51 82 -89 103 -135 50 -108 54 -157 6 -87 -13 17 -37 47 -54 66
l-32 33 -18 -34 c-19 -37 -52 -63 -92 -73 -18 -5 -40 -31 -75 -89 -57 -93
-160 -196 -243 -244 -178 -101 -403 -123 -594 -57 l-70 25 -45 -23 c-61 -30
-239 -32 -312 -4 -53 21 -65 40 -18 31 16 -4 55 -3 85 1 48 6 55 9 50 23 -28
66 -29 72 -18 114 11 41 10 45 -21 94 -82 124 -116 234 -116 378 0 185 61 325
211 481 72 75 98 109 103 135 3 19 17 58 30 85 25 53 104 160 113 152 3 -3 -7
-35 -21 -71z m-644 0 c-146 -155 -273 -414 -301 -620 -51 -364 62 -718 312
-982 43 -46 78 -84 76 -84 -13 0 -282 86 -378 121 -316 114 -748 320 -1071
512 -123 73 -390 248 -390 256 0 7 413 245 620 357 150 81 384 193 575 276
207 90 594 232 604 222 2 -2 -19 -28 -47 -58z m1990 -2 c254 -92 423 -165 713
-309 351 -174 885 -473 885 -496 0 -14 -296 -206 -455 -294 -499 -279 -842
-427 -1365 -590 -18 -6 -6 12 49 71 230 249 331 500 331 825 0 304 -97 558
-303 792 -32 37 -54 67 -48 67 6 0 93 -30 193 -66z"/>
<path d="M3112 3387 c-151 -55 -189 -248 -69 -354 47 -41 96 -56 167 -51 174
13 255 206 142 338 -61 72 -154 98 -240 67z"/>
</g>
</svg>
