<?xml version="1.0" encoding="UTF-8" standalone="no"?>
<!DOCTYPE svg PUBLIC "-//W3C//DTD SVG 1.1//EN" "http://www.w3.org/Graphics/SVG/1.1/DTD/svg11.dtd">
<svg version="1.1" xmlns="http://www.w3.org/2000/svg" xmlns:xlink="http://www.w3.org/1999/xlink" preserveAspectRatio="xMidYMid meet" viewBox="0 0 640 320" width="640" height="320"><defs><path d="M68.42 132.79C98.03 115.7 128.32 99.78 159.49 85.8C168.52 81.72 177.55 77.64 186.87 74.15C215.22 63.57 243.77 53.27 273.48 47.06C296.2 42.3 319.02 39.87 342.32 42.79C360.18 45.02 377.76 49.1 395.04 54.05C431.74 64.54 466.99 78.71 501.17 95.61C540.78 115.12 579.33 136.68 616.61 160.47C618.55 161.73 618.55 162.21 616.8 163.57C595.64 180.18 573.21 195.03 549.71 208.14C526.7 221.05 503.3 233.09 479.03 243.48C444.75 258.05 409.61 269.7 372.9 276.69C358.44 279.41 343.78 281.35 329.02 282.51C319.21 283.29 309.5 282.61 299.69 281.45C291.15 280.38 282.51 279.6 274.06 277.85C253.87 273.68 233.67 269.11 213.96 262.8C155.02 243.87 100.55 216.1 49.39 181.53C39.97 175.03 30.74 168.33 21.91 160.95C37.35 151.14 52.78 141.82 68.42 132.79ZM289.79 64.44C265.61 71.33 246.49 85.61 232.51 106.09C217.55 127.94 212.8 152.31 217.65 178.33C222.6 204.84 236.87 225.62 258.33 241.35C279.89 257.17 304.45 263 330.96 260.47C345.62 259.11 359.5 254.65 372.32 247.27C390.67 236.78 404.65 222.12 413.88 203.09C421.94 186.29 424.85 168.43 422.71 149.88C421.35 137.84 417.86 126.48 412.23 115.8C404.94 102.01 395.04 90.46 382.52 81.14C363.68 67.45 342.61 60.56 319.31 60.36C308.14 60.46 300.76 61.33 289.79 64.44ZM404.27 251.64C414.36 248.82 424.36 245.62 434.27 242.22C472.62 229.01 508.74 211.05 544.08 191.24C558.84 182.99 572.92 173.77 586.9 164.16C588.36 163.18 588.06 162.89 586.8 162.02C562.04 146.78 536.6 132.79 510.78 119.3C480.19 103.37 448.54 89.68 415.92 78.52C412.91 77.45 409.9 76.48 406.79 75.51C406.69 75.61 406.6 75.8 406.5 75.9C430.97 100.36 444.07 129.78 443.3 164.54C442.62 199.4 428.25 228.24 402.42 252.03C403.39 251.83 403.78 251.73 404.27 251.64ZM232.89 75.9C219.2 80.17 205.8 85.22 192.5 90.36C159.78 103.18 128.42 118.91 97.74 135.8C82.98 143.86 68.51 152.41 54.05 161.05C52.59 161.92 52.49 162.31 53.95 163.28C58.9 166.58 63.76 170.17 68.8 173.38C87.83 185.71 107.45 197.07 127.64 207.46C153.86 221.05 180.85 232.9 208.81 242.51C217.65 245.52 226.58 248.34 235.61 250.86C236.1 250.96 236.49 251.83 236.97 251.05C237.26 250.47 236.58 250.08 236.19 249.7C234.74 248.24 233.19 246.88 231.73 245.42C210.27 223.48 198.33 197.17 197.07 166.49C196.29 148.23 199.2 130.66 207.36 113.96C214.15 100.17 222.41 87.55 233.38 76.77C233.57 76.58 234.06 76.38 234.06 75.8C233.67 75.61 233.28 75.8 232.89 75.9ZM406.3 75.51C406.3 75.51 406.21 75.61 406.21 75.61C406.3 75.61 406.3 75.7 406.4 75.7C406.4 75.7 406.4 75.61 406.4 75.61C406.38 75.59 406.32 75.53 406.3 75.51Z" id="j5HKNq41q"></path><path d="M382.52 81.15C395.04 90.38 405.04 101.93 412.23 115.81C417.86 126.49 421.35 137.85 422.71 149.89C424.85 168.54 421.94 186.3 413.88 203.1C404.75 222.13 390.67 236.79 372.32 247.28C359.5 254.66 345.62 259.03 330.96 260.48C304.45 263.01 279.89 257.18 258.33 241.36C236.97 225.63 222.7 204.75 217.65 178.34C212.8 152.32 217.55 127.85 232.51 106.1C246.58 85.62 265.61 71.35 289.79 64.45C300.76 61.25 308.14 60.37 319.31 60.28C342.61 60.47 363.68 67.36 382.52 81.15Z" id="b3JSZ1BU9"></path><path d="M360.03 108.48C368.31 114.58 374.93 122.22 379.68 131.4C383.4 138.46 385.71 145.98 386.61 153.94C388.03 166.27 386.1 178.02 380.77 189.13C374.73 201.71 365.42 211.41 353.29 218.34C344.81 223.22 335.63 226.11 325.93 227.07C308.4 228.74 292.16 224.89 277.9 214.43C263.78 204.02 254.34 190.22 251 172.75C247.79 155.54 250.93 139.36 260.82 124.98C270.13 111.43 282.72 101.99 298.71 97.43C305.96 95.31 310.84 94.74 318.23 94.67C333.64 94.8 347.57 99.36 360.03 108.48Z" id="a1BZMSAZZm"></path><path d="M318.63 181.94C306.88 181.84 297.17 172.32 297.27 160.96C297.36 149.51 307.17 140.09 319.11 140.19C330.67 140.28 340.38 149.89 340.28 161.16C340.18 172.81 330.57 182.03 318.63 181.94Z" id="d3uFNWh4tS"></path><path d="M279.69 103.19C280.96 93.68 284.84 85.42 291.44 78.43C292.22 77.56 293 76.69 293.77 75.81C294.06 75.52 294.45 75.33 294.94 75.52C295.42 75.81 295.13 76.2 295.03 76.59C294.35 79.02 292.51 80.86 291.83 83.29C291.15 85.72 290.37 88.14 289.6 90.57C289.21 92.03 289.89 92.51 291.25 92.12C295.13 90.96 298.72 91.73 302.02 93.87C303.29 94.65 304.45 94.65 305.91 94.45C314.55 93.09 323.29 93 332.03 94.55C347.27 97.37 360.28 104.45 370.86 115.72C380.28 125.82 386.01 137.76 387.95 151.45C387.95 151.64 388.05 151.84 388.05 152.03C387.27 157.47 392.03 159.22 395.04 161.93C402.52 168.63 407.28 176.89 409.61 186.6C409.7 187.08 409.99 187.66 409.41 187.86C408.63 188.15 408.34 187.47 407.95 186.89C405.43 183.1 402.61 179.51 399.41 176.3C397.57 174.56 397.37 174.65 396.5 176.98C394.85 181.64 391.25 184.36 386.59 185.43C384.46 185.92 383.39 186.89 382.42 188.83C372.9 208.15 357.66 220.68 336.78 226.11C320.67 230.29 304.94 228.93 289.6 222.33C289.21 222.13 288.82 222.04 288.63 221.94C287.85 221.84 287.46 222.04 287.07 222.33C283.58 225.53 279.21 226.11 274.84 226.79C267.07 227.86 259.5 227.08 252.02 224.56C250.66 224.07 249.59 223.39 248.33 222.72C247.94 222.52 247.36 222.23 247.55 221.65C247.75 221.06 248.33 221.26 248.82 221.36C253.77 222.62 258.82 221.65 263.77 221.16C265.52 220.97 265.32 220.09 264.55 218.93C261.44 214.66 261.44 210.09 263.38 205.43C263.96 203.88 263.96 202.91 262.9 201.55C256.1 192.91 251.63 183.2 249.79 172.32C248.14 162.52 248.43 152.81 251.15 143.29C253.96 133.29 258.82 124.36 265.81 116.59M309.4 97.46C306.98 97.75 306.88 97.85 307.95 99.99C310.67 105.33 309.7 112.03 305.71 116.49C297.95 125.04 283.87 122.32 279.89 111.45C279.4 109.99 279.01 109.5 277.56 110.67C273.48 113.87 269.69 117.37 266.49 121.45C256.29 134.07 251.63 148.54 252.51 164.75C253.19 177.37 257.65 188.54 264.93 198.73C266 200.19 266.78 200.48 268.43 199.32C273.77 195.33 281.25 195.53 286.59 199.61C291.83 203.59 294.06 210.68 291.54 216.79C290.66 218.93 291.25 219.61 293.09 220.39C305.62 225.34 318.53 226.79 331.74 224.17C353.19 219.9 369.12 208.05 379.21 188.54C380.09 186.89 379.89 186.21 378.05 185.53C370.96 183.1 366.79 175.43 368.44 168.15C369.99 161.16 375.91 156.3 383.2 156.3C385.04 156.3 385.53 155.53 385.23 153.97C384.85 151.84 384.65 149.6 384.17 147.47C381.25 134.65 374.85 123.78 365.23 114.75C352.03 102.8 336.49 97.27 319.21 96.69C315.81 96.78 312.61 97.08 309.4 97.46Z" id="d45Q3D2yN8"></path></defs><g><g><g><use xlink:href="#j5HKNq41q" opacity="1" fill="#0f0e15" fill-opacity="1"></use><g><use xlink:href="#j5HKNq41q" opacity="1" fill-opacity="0" stroke="#000000" stroke-width="1" stroke-opacity="0"></use></g></g><g><use xlink:href="#b3JSZ1BU9" opacity="1" fill="#1e56c3" fill-opacity="1"></use><g><use xlink:href="#b3JSZ1BU9" opacity="1" fill-opacity="0" stroke="#000000" stroke-width="1" stroke-opacity="0"></use></g></g><g><use xlink:href="#a1BZMSAZZm" opacity="1" fill="#5ac4d3" fill-opacity="1"></use><g><use xlink:href="#a1BZMSAZZm" opacity="1" fill-opacity="0" stroke="#000000" stroke-width="1" stroke-opacity="0"></use></g></g><g><use xlink:href="#d3uFNWh4tS" opacity="1" fill="#201d2a" fill-opacity="1"></use><g><use xlink:href="#d3uFNWh4tS" opacity="1" fill-opacity="0" stroke="#000000" stroke-width="1" stroke-opacity="0"></use></g></g><g><use xlink:href="#d45Q3D2yN8" opacity="1" fill="#ffffff" fill-opacity="1"></use><g><use xlink:href="#d45Q3D2yN8" opacity="1" fill-opacity="0" stroke="#000000" stroke-width="1" stroke-opacity="0"></use></g></g></g></g></svg>